<?xml version="1.0" encoding="UTF-8"?>
<!-- Generator: Adobe Illustrator 24.0.0, SVG Export Plug-In . SVG Version: 6.00 Build 0)  -->
<svg xmlns="http://www.w3.org/2000/svg" xmlns:xlink="http://www.w3.org/1999/xlink" version="1.1" id="Layer_1" x="0px" y="0px" viewBox="0 0 170 52.8" style="enable-background:new 0 0 170 52.8;" xml:space="preserve">
<style type="text/css">
	.st0{fill-rule:evenodd;clip-rule:evenodd;fill:#111111;}
</style>
<title id="title">Business Insider logo</title>
<desc id="desc">The words "Business Insider".</desc>
<g>
	<path class="st0" d="M17.4,51.3h3.7V31.4h-3.7V51.3z M31,51h3.3V38.4l14,12.8V31.7h-3.3V44L31,31.4V51z M56,46.1   c1.8,1.4,4,2.2,6.3,2.2c2.3,0,3.9-0.8,3.9-2.5c0-1.5-1-2.1-2.8-2.8l-2.9-1c-2.7-0.9-4.7-2.3-4.7-5.5c0-3.4,3.1-5.2,6.7-5.2   c2.2,0,4.3,0.6,5.9,1.6v3.4c-1.7-1.2-3.5-2.1-5.8-2.1c-2,0-3.5,0.8-3.5,2.3c0,1.4,0.9,2,2.6,2.5l3.2,1.1c3.1,1.1,4.5,2.8,4.5,5.6   c0,3.5-3.1,5.5-7.1,5.5c-2.7,0-4.9-0.7-6.3-1.7C56,49.6,56,46.1,56,46.1z M78.2,51.3h3.7V31.4h-3.7V51.3z M99.4,48.3   c4.2,0,6.4-2.7,6.4-6.9c0-4.3-2.2-7-6.4-7h-4.1v13.9C95.2,48.3,99.4,48.3,99.4,48.3z M91.8,31.4h7.7c5.9,0,9.7,3.9,9.7,9.9   c0,6.1-3.8,9.9-9.7,9.9h-7.7V31.4z M127.8,31.4v3h-9v4.8h8.1v2.9h-8.1v6.2h9v3h-12.4V31.4H127.8z M141,40.4h3.7   c2.2,0,3.4-1.2,3.4-3s-1.2-3-3.4-3H141V40.4L141,40.4z M141,43.2v8.1h-3.3V31.4h7c4,0,6.6,2.1,6.6,6c0,3.3-1.4,5.2-4.5,5.7l7,8.2   h-3.7l-6.8-8.1L141,43.2L141,43.2z M16.1,11.8c1.5-0.5,2.6-2.1,2.6-4.3c0-3.7-2.6-5.6-6.7-5.6H5v20.4h7.6c4.1,0,6.7-2,6.7-5.9   C19.3,14.3,18,12.4,16.1,11.8z M8.3,10.5V4.9h3.7c2.3,0,3.5,0.8,3.5,2.8s-1.2,2.8-3.5,2.8C11.9,10.5,8.3,10.5,8.3,10.5z M8.3,13.4   h4.3c2.3,0,3.5,1.1,3.5,3c0,1.8-1.2,3-3.5,3H8.3L8.3,13.4L8.3,13.4z M34.5,22.7c4.8,0,8-2.9,8-8.5V1.9h-3.4v11.9   c0,3.9-1.6,5.8-4.6,5.8s-4.6-1.8-4.6-5.8V1.9h-3.4v12.3C26.6,19.8,29.8,22.7,34.5,22.7z M50.4,20.9c1.4,1,3.7,1.8,6.3,1.8   c4,0,7.1-2.1,7.1-5.8c0-3-1.4-4.8-4.5-5.9l-3.2-1.2c-1.7-0.6-2.6-1.2-2.6-2.7c0-1.7,1.5-2.5,3.5-2.5c2.3,0,4.1,0.9,5.8,2.2V3.2   c-1.6-1.1-3.6-1.7-5.9-1.7c-3.7,0-6.7,2-6.7,5.6c0,3.4,2,4.8,4.7,5.8l2.9,1.1c1.8,0.7,2.8,1.3,2.8,2.9c0,1.8-1.6,2.7-3.9,2.7   c-2.3,0-4.5-0.9-6.3-2.4C50.4,17.3,50.4,20.9,50.4,20.9z M75.9,1.9h-3.4v20.4h3.4V1.9z M85.5,22.3h3.2V9l13.7,13.6V1.9h-3.2v13.1   L85.5,1.6C85.5,1.6,85.5,22.3,85.5,22.3z M123.4,1.9V5h-8.7v4.9h7.8v3h-7.8v6.3h8.7v3.1h-12V1.9H123.4z M131.2,20.9   c1.4,1,3.7,1.8,6.3,1.8c4,0,7.1-2.1,7.1-5.8c0-3-1.4-4.8-4.5-5.9l-3.2-1.2c-1.7-0.6-2.6-1.2-2.6-2.7c0-1.7,1.5-2.5,3.5-2.5   c2.3,0,4.1,0.9,5.8,2.2V3.2c-1.6-1.1-3.6-1.7-5.9-1.7c-3.7,0-6.7,2-6.7,5.6c0,3.4,2,4.8,4.7,5.8l2.9,1.1c1.8,0.7,2.8,1.3,2.8,2.9   c0,1.8-1.6,2.7-3.9,2.7c-2.3,0-4.5-0.9-6.3-2.4C131.2,17.2,131.2,20.9,131.2,20.9z M151.6,20.9c1.4,1,3.7,1.8,6.3,1.8   c4,0,7.1-2.1,7.1-5.8c0-3-1.4-4.8-4.5-5.9l-3.2-1.2c-1.6-0.6-2.6-1.2-2.6-2.7c0-1.7,1.5-2.5,3.5-2.5c2.3,0,4.1,0.9,5.8,2.2V3.2   c-1.6-1.1-3.6-1.7-5.9-1.7c-3.7,0-6.7,2-6.7,5.6c0,3.4,2,4.8,4.7,5.8l2.9,1.1c1.8,0.7,2.8,1.3,2.8,2.9c0,1.8-1.6,2.7-3.9,2.7   c-2.3,0-4.5-0.9-6.3-2.4C151.6,17.2,151.6,20.9,151.6,20.9z"></path>
</g>
</svg>
