<?xml version="1.0" encoding="UTF-8"?>
<!-- Generator: Adobe Illustrator 24.0.0, SVG Export Plug-In . SVG Version: 6.00 Build 0)  -->
<svg xmlns="http://www.w3.org/2000/svg" xmlns:xlink="http://www.w3.org/1999/xlink" version="1.1" id="Layer_1" x="0px" y="0px" viewBox="0 0 200 27.1" style="enable-background:new 0 0 200 27.1;" xml:space="preserve">
<style type="text/css">
	.st0{fill:#093451;}
</style>
<title>Benzinga Logo_pitchdeck</title>
<g>
	<polygon class="st0" points="32.3,26.4 50.6,26.4 50.6,21.6 37.8,21.6 37.8,15.7 48.4,15.7 48.4,10.9 37.8,10.9 37.8,5.4 50.6,5.4    50.6,0.6 32.3,0.6  "></polygon>
	<polygon class="st0" points="72.5,16.8 60.6,0.6 52.3,0.6 54.9,3.9 54.9,26.5 60.4,26.5 60.4,9.6 72.8,26.4 78,26.4 78,0.6    72.5,0.6  "></polygon>
	<path class="st0" d="M24,13.1c2.4-0.5,4.4-2.7,4.4-5.9c0-3.4-2.5-6.6-7.5-6.6H5l2.5,3.2v22.6h14.1c5,0,7.5-3.1,7.5-7   C29,16.2,26.8,13.5,24,13.1z M13,5.5h6.9c1.9,0,3,1.1,3,2.7s-1.2,2.7-3,2.7H13V5.5z M20.1,21.6H13v-5.9h7.1c2.1,0,3.3,1.3,3.3,3   C23.4,20.5,22.2,21.6,20.1,21.6L20.1,21.6z"></path>
	<path class="st0" d="M158.7,16.8h2.9v3c-1.5,1.2-3.3,1.9-5.3,1.9c-4.6,0-7.8-3.5-7.8-8.2s3.3-8.2,7.8-8.2c2.4,0,4.6,1.2,5.9,3.3   l4.3-2.4c-1.9-2.9-5.1-5.6-10.3-5.6c-7.3,0-13.4,5-13.4,12.9s6,12.9,13.4,12.9c4,0.1,7.9-1.6,10.6-4.7v-9.5H155L158.7,16.8z"></path>
	<polygon class="st0" points="133.9,16.8 121.9,0.6 113.7,0.6 116.2,3.9 116.2,26.5 121.7,26.5 121.7,9.6 134.1,26.4 139.4,26.4    139.4,0.6 133.9,0.6  "></polygon>
	<path class="st0" d="M185,0.6h-10.6l2.6,3.3l-0.5,1.2l-8.2,21.3h6.2l1.6-4.4h11.1l1.6,4.4h6.2L185,0.6z M177.5,17.2l4-11.1l4,11.1   H177.5z"></path>
	<rect x="105" y="0.6" class="st0" width="5.5" height="25.8"></rect>
	<polygon class="st0" points="100.6,5.1 100.6,0.6 81.1,0.6 81.1,5.4 93.3,5.4 81.1,22 81.1,26.4 100.8,26.4 100.8,21.6 88.3,21.6     "></polygon>
</g>
</svg>
