<?xml version="1.0" encoding="UTF-8"?>
<!-- Generator: Adobe Illustrator 24.0.0, SVG Export Plug-In . SVG Version: 6.00 Build 0)  -->
<svg xmlns="http://www.w3.org/2000/svg" xmlns:xlink="http://www.w3.org/1999/xlink" version="1.1" id="Layer_1" x="0px" y="0px" viewBox="0 0 180 40.8" style="enable-background:new 0 0 180 40.8;" xml:space="preserve">
<style type="text/css">
	.st0{fill:#FF0000;}
</style>
<title>Mstar-logo-50px-01-04</title>
<g>
	<rect x="95.7" y="2.5" class="st0" width="3.3" height="35.8"></rect>
	<polygon class="st0" points="140.6,2.5 151,2.5 151,5.5 147.4,5.5 147.4,38.3 144.1,38.3 144.1,5.5 140.6,5.5  "></polygon>
	<polygon class="st0" points="92.7,2.5 92.7,38.3 89.3,38.3 84.4,16.6 84.4,38.3 81.2,38.3 81.2,2.5 84.2,2.5 89.5,26.2 89.5,2.5     "></polygon>
	<polygon class="st0" points="21.9,2.5 21.9,38.3 18.7,38.3 18.7,7.6 14.8,38.3 12.1,38.3 8.2,7.6 8.2,38.3 5,38.3 5,2.5 10.4,2.5    13.6,24.1 16.5,2.5  "></polygon>
	<path class="st0" d="M61.6,38.3c6.8-9.2,4.8-22.2-4.4-29s-22.2-4.8-29,4.4c-5.4,7.3-5.4,17.2,0,24.5h4.3   c-6.8-6.8-6.7-17.9,0.1-24.7s17.9-6.7,24.7,0.1c6.7,6.8,6.7,17.7,0,24.5H61.6z"></path>
	<path class="st0" d="M162.7,38.3h-3.2l-0.8-8.1h-4.8l-0.8,8.1h-3.2l3.7-35.8h5L162.7,38.3z M158.4,27l-2.2-19.7l-2,19.7H158.4   L158.4,27z"></path>
	<path class="st0" d="M123.8,33.8c0.2,1.1-0.5,2.2-1.7,2.4c-1.1,0.2-2.2-0.5-2.4-1.7c0-0.2,0-0.5,0-0.7v-27   c-0.2-1.1,0.5-2.2,1.7-2.4c1.1-0.2,2.2,0.5,2.4,1.7c0,0.2,0,0.5,0,0.7l0,1.3v6.7h3.3V9.6V8.1c0-4.5-1.8-6.6-5.4-6.6   c-3.2,0-5.4,2.3-5.4,5.8v1.3V31v1.5c0,4.6,1.8,6.8,5.4,6.8c3.7,0,5.3-2.2,5.3-6.9v-13h-6v3.1h2.7v10.1L123.8,33.8z"></path>
	<path class="st0" d="M137.3,32.9v-9.3l-7.5-5.6V7.6c0-4.1,1.8-6.2,5.4-6.2c3.7,0,5.3,2.1,5.3,6.7l0,1.4v5.3h-3.3V7.8l0-1   c0.2-1.1-0.5-2.2-1.6-2.4c-1.1-0.2-2.2,0.5-2.4,1.6c0,0.3,0,0.5,0,0.8v9.7l7.4,5.6v10.8c0,4.2-1.9,6.5-5.4,6.5   c-3.5,0-5.4-2.1-5.4-6.2v-1.4v-7h3.4v9.2c-0.2,1.1,0.5,2.2,1.6,2.4s2.2-0.5,2.4-1.6c0-0.3,0-0.5,0-0.8L137.3,32.9z"></path>
	<path class="st0" d="M79.3,38.3H76c-0.5-1.2-0.7-2.5-0.7-3.8l0-1.8l0-0.9v-7c0.1-1-0.6-2-1.6-2.1c-0.1,0-0.2,0-0.3,0h-2.3v15.7   h-3.2V2.5H72c4.7,0,6.5,1.7,6.5,6.3v6.7c0,3-0.5,4.3-2.9,5.1c0,0,0.1,0,0.1,0c2.2,0.6,2.7,1.5,2.8,4.3l0,1.3v6.5   C78.4,34.7,78.7,36.6,79.3,38.3z M71.1,5.3v14.2h1.1c1.5,0.3,2.8-0.7,3.1-2.2c0-0.3,0.1-0.6,0-0.8V9.2c0-2.9-0.7-3.9-2.9-3.9   L71.1,5.3L71.1,5.3z"></path>
	<path class="st0" d="M175,38.3h-3.3c-0.5-1.2-0.7-2.5-0.7-3.8l0-1.8l0-0.9v-7c0.1-1-0.6-2-1.6-2.1c-0.1,0-0.2,0-0.3,0h-2.3v15.7   h-3.2V2.5h4.2c4.7,0,6.5,1.7,6.5,6.3v6.7c0,3-0.5,4.3-2.9,5.1c0,0,0.1,0,0.1,0c2.2,0.6,2.7,1.5,2.8,4.3l0,1.3v6.5   C174.2,34.7,174.4,36.6,175,38.3z M166.8,5.3v14.2h1.1c1.5,0.3,2.8-0.7,3.1-2.2c0-0.3,0.1-0.6,0-0.8V9.2c0-2.9-0.7-3.9-2.9-3.9   L166.8,5.3L166.8,5.3z"></path>
	<polygon class="st0" points="113.4,2.5 113.4,38.3 110,38.3 105.1,16.6 105.1,38.3 101.9,38.3 101.9,2.5 104.8,2.5 110.2,26.2    110.2,2.5  "></polygon>
</g>
</svg>
