<?xml version="1.0" encoding="UTF-8"?>
<!-- Generator: Adobe Illustrator 24.0.0, SVG Export Plug-In . SVG Version: 6.00 Build 0)  -->
<svg xmlns="http://www.w3.org/2000/svg" xmlns:xlink="http://www.w3.org/1999/xlink" version="1.1" id="Layer_1" x="0px" y="0px" viewBox="0 0 1298.6 148.7" style="enable-background:new 0 0 1298.6 148.7;" xml:space="preserve">
<g>
	<path d="M649.4,110.3c-0.8-2.6-1.7-5.2-2.5-7.8c-7.6-23.5-15.1-46.9-22.8-70.4c-0.5-1.4-1.9-3.5-3-3.5c-7.9-0.3-15.9-0.2-24.8-0.2   c5.4,4.1,6,8.4,3.6,13.5c-1.6,3.4-2.6,7.1-4,10.6c-7,18.7-13.9,37.5-21.1,56.1c-1.7,4.4-4.1,8.9-7.2,12.5c-4.3,5.1-9.7,4-12.6-2.1   c-0.9-1.9-1.5-4-2.2-6c-2.7-7.5-5.1-15.2-8.2-22.6c-3.5-8.3-9.9-13.7-19-15.3c-1-0.2-2.1-0.5-2.9-0.7c5.2-1.6,10.7-2.6,15.5-5   c8.4-4.1,11.7-11.5,11.1-20.7c-0.5-8.2-5.2-13.5-12.6-16.2c-4.5-1.6-9.3-3.1-14.1-3.3c-3.5-0.1-7-0.1-10.5-0.2   c9.1,0.7,15.4,7.3,16.2,17.6c0.3,4.5,0,9.2-1,13.5c-2.4,10.6-11.3,16-22.9,14.1c0-14.2-0.1-28.1,0.1-42.1c0-1.1,2-2.9,3.3-3   c0.5,0,0.9-0.1,1.3-0.1c-11.9-0.1-23.6,0-34.8,0c6.1,2,8.5,7.2,8.5,14.1c0,20.1-0.2,40.1,0.1,60.2c0.1,9.1-0.7,17.4-10.7,21.6   c13,0,25.9,0,38,0c-1.8-3.3-5-6.6-5.2-10c-0.6-12.4-0.2-24.8-0.2-37.4c6.1-0.1,10.4,3,13.2,7.6c3.1,5.2,5.7,10.7,7.7,16.4   c2.7,7.8,4.7,15.8,6.9,23.5c18.6,0,36.9,0,55.2,0c-7-3-10.3-8.1-9.1-15.2c1-6.1,3.2-11.9,5.3-17.8c0.3-1,2.6-1.8,4-1.8   c9-0.2,18,0,26.9-0.1c2.7,0,4.2,0.8,4.9,3.5c1.6,5.7,3.8,11.2,4.9,17c1.1,5.4,2.3,11.3-5.6,14.5c14.7,0,28.3,0,41.9,0   C654.6,121.8,651.3,116.7,649.4,110.3z M584.9,89.1c5.8-16.7,11.6-33.1,17.3-49.5c0.3,0,0.7,0,1,0c4.9,16.3,9.8,32.7,14.8,49.5   C606.9,89.1,596.3,89.1,584.9,89.1z"></path>
	<path d="M509.1,29.3c1,0,2,0,2.9,0C511.1,29.2,510.1,29.2,509.1,29.3z"></path>
	<path d="M1119.7,106.5c0.1-21,0.1-41.9,0-62.9c0-5.9,1-11.1,7-15.2c-9.3,0-17.6,0.2-25.9-0.1c-3.6-0.1-5.3,1-6.5,4.5   c-6,17.9-12.2,35.8-18.3,53.7c-0.5,1.3-1.1,2.6-2,4.8c-0.9-2.4-1.4-3.8-1.9-5.2c-5.9-17.9-11.9-35.9-17.7-53.9   c-0.9-2.8-2.1-3.8-5-3.8c-8.8,0.2-17.6,0.1-27.9,0.1c6.3,2.6,8.8,6.4,8.8,11.8c0,20.5,0.1,41-0.3,61.5c-0.2,10-2.6,19.4-13.9,23.4   c10,0,20.1,0,31.3,0c-12.3-4.8-15.4-9.4-15.4-21.8c0-20.2,0-40.4,0-60.6c0-1.5,0-2.9,0-4.4c0.3-0.1,0.7-0.1,1-0.2   c10,29,19.9,58,30.3,88.3c10.8-30.2,21.2-59.2,31.5-88.1c0.4,0.1,0.8,0.2,1.2,0.3c0,24.1,0,48.3,0,72.4c0,4.8-2.4,8.7-6.2,11.6   c-0.9,0.7-1.7,1.4-3.1,2.5c13.9,0,26.9,0,41.3,0C1120.5,120.2,1119.7,113.6,1119.7,106.5z"></path>
	<path d="M205.9,28.6c-14,0-26.7,0-40.7,0c9,2.9,10.8,9,10.7,16.4c-0.1,8.5-0.1,17,0,25.5c0.1,3.2-0.9,4.3-4.1,4.2   c-8.5-0.2-17-0.1-25.6,0c-2.8,0-4.1-0.8-4.1-3.8c0.1-9.3-0.1-18.5,0.1-27.8c0.1-5.9,1.2-11.5,8.5-14.5c-13.8,0-26.5,0-40.5,0   c7.8,3,8.8,8.8,8.9,14.8c0.1,19.8,0,39.5,0.1,59.3c0,8.6,0.6,17.4-10.1,22.6c14.9,0,28.3,0,41.7,0c-4.4-3-7.7-6.5-7.9-11.7   c-0.4-11.7-0.5-23.4-0.6-35.1c0-0.9,1.4-2.6,2.1-2.6c10.3-0.2,20.6-0.1,31.4-0.1c0,9.2-0.1,17.8,0,26.4c0.2,9.4-0.1,18.4-10.6,23   c13.4,0,26.8,0,40.2,0c-6.1-3.5-8.3-8.8-8.3-15.1c-0.1-22.9-0.1-45.9,0-68.8C197.5,35.9,199.3,31.2,205.9,28.6z"></path>
	<path d="M1169.4,123.6c0-15.8,0-31.7,0-47.7c11.4-1,21.5,0,26.6,12.1c0-8.1,0-16.2,0-24.9c-7.7,10.3-17,13.8-26.5,10.6   c0-13.9,0-27.8,0-41.8c15.2-0.6,29.7-0.3,38.7,15.1c0.4-6.1,0.8-12.1,1.3-18.4c-24.3,0-47.9,0-72.4,0c6.5,2.1,8.5,6.2,8.5,11.5   c0.1,22.8,0.1,45.6,0.2,68.3c0,7.1-1.5,13.3-8.8,16.8c24.6,0,49.2,0,74.4,0c-0.4-6.9-0.8-13.6-1.2-21.3   C1200.6,124.1,1191.4,125.4,1169.4,123.6z"></path>
	<path d="M883,46.9c11.8-13.3,17.9-16.5,28.9-14.5c0,1.6,0,3.2,0,4.8c0,23.7-0.1,47.4,0,71.1c0,7.2-1.7,13.2-8.7,16.9   c14.3,0,28.5,0,42.8,0c-9.1-3.9-10.8-11.1-10.7-19.9c0.3-22.8,0.1-45.6,0.1-68.4c0-1.6,0-3.2,0-5c13.4-1,22.2,5,28.8,16   c0-7,0-13.2,0-19.2c-26.8,0-53.1,0-79.3,0C884.2,35.2,883.6,41.1,883,46.9z"></path>
	<path d="M245.2,123.6c0-15.8,0-31.7,0-48.4c6.2,0.6,12.4,0,17.4,2.1c4.9,2.1,8.5,7,12.6,10.6c0-7.9,0-16.1,0-24.3   c-0.4-0.1-0.8-0.2-1.1-0.3c-0.7,1-1.5,2-2.2,3.1c-2.6,4.4-6.6,6.7-11.4,7.5c-3.9,0.6-7.9,0.5-11.8,0.8c-3.1,0.3-3.9-1.1-3.9-4   c0.1-10.2,0-20.4,0-30.5c0-2.7,0-5.3,0-9c8.3,0.7,15.9,0.8,23.3,2.2c7.9,1.5,13.8,6.4,17.8,15.1c-0.4-7.5-0.8-13.5-1.2-19.7   c-22.6,0-44.9,0-68,0c5.9,3.6,6.8,8.7,6.8,14.2c0,20.2,0,40.4,0,60.6c0,7.9,0.4,15.9-7.3,21c0.4,0.5,0.5,0.7,0.5,0.7   c23.1,0.1,46.2,0.2,69.3,0.2c0.8,0,2.4-1.8,2.4-2.8c0.2-5.8,0.1-11.6,0.1-17.4C278.7,124.7,269,125.4,245.2,123.6z"></path>
	<path d="M711.3,47.5c10.5-13.4,18.2-17.2,30.5-15.1c0.1,0.5,0.2,1.1,0.2,1.7c0,25.4,0.1,50.8-0.1,76.1c0,2.7-0.9,5.9-2.5,8.1   c-2,2.8-5.1,4.7-7.9,7.1c14.3,0,28.5,0,43.3,0c-10.6-7.1-11.1-8-11.1-20.7c0-22.5,0-45,0-67.5c0-1.6,0-3.3,0-5.1   c13.4-1.3,22.3,5,29.3,16.5c0.7-7.3,1.4-13.5,2-19.8c-28.4,0-56,0-83.8,0C711.3,35,711.3,41,711.3,47.5z"></path>
	<path d="M384.7,47.9c7.1-11.8,16.6-17.4,30.5-15.9c0,2,0,3.7,0,5.3c0,22-0.1,44.1,0.1,66.1c0.1,9.1-0.7,17.5-10.7,21.7   c14.1,0,28.2,0,42.4,0c-10.7-4.6-10.4-13.9-10.3-23.2c0.1-21.6,0-43.2,0-64.7c0-1.8,0-3.5,0-5.4c13.6-1.2,22.7,4.7,30,15.2   c0.4-6.1,0.8-12.2,1.2-18.5c-27.6,0-54.5,0-81.4,0C385.8,35,385.3,41,384.7,47.9z"></path>
	<path d="M21.9,48.6c7.5-12.9,17.6-18.3,31.2-16.5c0.2,0.6,0.5,0.9,0.5,1.1c0,25.5,0.2,51,0,76.5c-0.1,6.4-2.8,11.8-9.4,14.2   c-0.4,0.2-0.7,0.6-1.6,1.3c14.1,0,27.5,0,40.9,0c-8-4.4-8.6-11.8-8.7-19.4c-0.1-22.9,0-45.9,0-68.8c0-1.6,0-3.2,0-4.8   c6.5-1,12.1-0.1,16.7,3.3c4.5,3.2,8.3,7.3,12.1,10.8c0-5.5,0-11.5,0-17.4c-27.1,0-54,0-80.8,0C22.5,35.2,22.3,41.3,21.9,48.6z"></path>
	<path d="M844.8,70.4c-3.6-1.9-7.5-3.3-11.1-5.1c-3.9-2-8-3.8-11.3-6.6c-6.1-5-7.9-11.8-5.5-19.3c2.1-6.6,7.1-10.1,13.7-11.1   c9.4-1.5,16.7,2.1,21.8,10c1.8,2.9,3.3,6,5.4,9.9c0.4-7,0.7-12.9,1.1-19.1c-3.3-0.5-5.8-0.8-8.3-1.2c-10-1.3-19.9-2-29.8,0.6   C808,31.8,800.3,39.6,799,52.3c-1.2,11.5,3.2,20.5,14.8,26.9c3.8,2.1,8,3.6,11.9,5.7c3.7,2,7.6,4,10.8,6.7c6.2,5.2,8.1,14.6,5,22.5   c-2.6,6.7-8.4,10-17.2,10.2c-9.6,0.3-16.1-4.6-21.1-12c-1.5-2.3-2.8-4.8-4.5-7.7c0,6.6,0,12.3,0,18.4c13.3,2.5,26.5,4.4,39.7,0.8   c13.6-3.7,21.5-12.1,22.6-25.3C862.1,86.8,857.4,77.2,844.8,70.4z"></path>
	<path d="M1269.5,73.1c-5-3.3-10.9-5.3-16.1-8.2c-4.3-2.4-9.1-4.7-12.4-8.1c-9.2-9.5-4.6-25,8.2-28.1c8.2-2,15.8-0.2,21.3,6.8   c2.8,3.5,4.8,7.6,7.2,11.4c1-5.1,1.2-10.4,0.9-15.6c0-1-1.6-2.7-2.5-2.7c-10.1-0.5-20.3-1.7-30.3-0.9c-19.6,1.6-30.8,18.2-25.2,36   c2.8,8.9,9.6,13.6,17.5,17.5c5.4,2.6,11.1,5,16.2,8.2c8.9,5.8,11.7,16.9,7.1,26.1c-3.7,7.6-14.1,10.9-23.9,7.9   c-8.7-2.7-13.3-9.5-17.8-18.1c0.4,5,1.2,8.9,1,12.8c-0.3,4.4,1.3,6.2,5.5,6.1c0.7,0,1.5,0.3,2.2,0.4c12,1.5,23.9,2.5,35.5-2.2   c9.5-3.8,16.1-10.3,17.7-20.7C1283.2,89.7,1279.7,79.8,1269.5,73.1z"></path>
	<path d="M366,71.4c-4.4-2.6-9.4-4.2-13.9-6.6c-4.2-2.3-8.6-4.7-12-7.9c-4.9-4.7-5.6-10.9-3.7-17.3c1.9-6.3,6.6-9.7,12.7-11.1   c9.2-2.1,17.3,1.4,22.7,9.8c1.8,2.8,3.3,5.8,5.4,9.6c0.4-3.9,0.6-6.7,0.9-9.5c0.9-8.7,0.9-8.8-7.6-10.2c-9.9-1.6-19.9-2.1-29.8,0.4   c-12.5,3.1-20.7,11.4-22.2,22.5c-1.6,12.3,3.5,22.1,15.2,28.5c3.9,2.1,8.1,3.4,11.9,5.7c4.4,2.6,9.1,5.2,12.5,8.9   c5.6,6.2,5.7,13.9,2.4,21.3c-3,6.7-9,8.8-16.1,9c-10.1,0.4-16.9-4.6-22.1-12.7c-1.2-1.9-2.3-3.9-3.9-6.7c0,6.5,0,12,0,18.2   c14.1,2.5,27.9,4.5,41.6,0c10.7-3.5,18.5-10.1,20.2-21.7C382.2,88.4,377.6,78.1,366,71.4z"></path>
	<path d="M1002.8,104c0.2-19.6,0.2-39.2,0-58.8c-0.1-6.9,1.2-12.9,8.9-16.7c-13.4,0-25.8,0-39,0c5.6,3.1,8.5,7.1,8.5,13   c0,22.9,0,45.9,0,68.8c0,5.2-2.3,9.3-6.4,12.5c-0.9,0.6-1.7,1.3-3.1,2.4c14,0,27,0,40.1,0C1003.5,120.2,1002.7,112.5,1002.8,104z"></path>
	<path d="M696.1,105.8c0.2-20.7,0.1-41.3,0-62c0-6.9,1.2-12.8,9.8-15.3c-14.4,0-27.6,0-41,0c7.3,2.7,9.6,6,9.6,13.7   c0,22.3,0,44.7,0,67c0,1.6-0.3,3.3-0.5,4.9c-1,5.7-4.8,8.9-9.9,11.1c14.2,0,28.3,0,42.5,0C696.7,122,696,114.3,696.1,105.8z"></path>
</g>
</svg>
